<svg width="305" height="181" viewBox="0 0 305 181" fill="none" xmlns="http://www.w3.org/2000/svg">
<g clip-path="url(#clip0_375_16)">
<path d="M179.659 32.369C179.659 49.0596 163.722 63.1797 146.972 63.1797C130.223 63.1797 115.461 49.0596 115.461 32.369C115.461 15.6783 127.537 -0.642563 148.298 0.0176673C167.291 0.625079 179.659 15.6783 179.659 32.369Z" fill="white"/>
<path d="M148.298 38.7511C152.445 38.7511 155.807 35.401 155.807 31.2685C155.807 27.136 152.445 23.7859 148.298 23.7859C144.151 23.7859 140.789 27.136 140.789 31.2685C140.789 35.401 144.151 38.7511 148.298 38.7511Z" fill="black"/>
<path d="M118.369 64.6146C118.811 63.884 120.684 62.3082 120.684 62.3082C120.684 62.3082 123.44 60.442 124.324 60.1074C124.836 59.9138 122.522 59.2624 122.221 59.4472C120.119 60.7677 117.283 63.2942 116.037 64.9491C114.827 66.5689 112.936 69.6676 112.353 71.6219C111.099 75.8738 111.576 79.976 111.841 82.5553C111.991 84.0254 112.963 87.3354 113.714 88.603C115.392 91.4112 120.772 95.7599 123.537 97.5117C127.637 100.109 137.027 102.714 141.648 104.22C145.287 105.408 152.107 107.23 155.782 108.287C159.166 109.264 165.844 111.57 169.254 112.468C170.509 112.794 173.212 112.917 174.334 113.569C175.792 114.414 178.133 117.072 178.751 118.63C179.14 119.599 179.219 121.879 178.751 122.812C177.797 124.713 173.009 127.319 171.905 127.874C171.525 128.058 171.021 129.053 171.242 129.414C171.463 129.784 176.322 126.333 176.322 126.333C176.322 126.333 181.092 122.301 182.064 120.611C182.921 119.114 184.122 115.488 184.378 113.683C184.626 111.966 184.935 108.357 184.926 106.535C184.926 104.757 184.281 101.35 183.601 99.7125C182.426 96.8867 178.46 91.9746 176.092 90.0291C174.661 88.8583 171.984 87.573 170.244 86.948C166.083 85.4603 158.388 83.2507 154.121 82.1063C150.888 81.2348 144.324 79.1397 141.091 78.2594C138.079 77.4407 130.375 75.6801 127.398 74.7382C125.295 74.0691 119.898 72.0884 118.564 70.3366C117.354 68.7521 117.725 65.627 118.343 64.6146H118.369Z" fill="white"/>
<path d="M13.5958 147.865V148.253C13.5958 152.566 11.4844 156.387 6.9525 156.387C2.69442 156.387 0 152.619 0 148.411C0 144.203 2.77393 140.312 7.12918 140.312C9.61158 140.312 11.776 141.624 12.8979 143.957L10.3802 145.374C9.7971 144.001 8.56032 142.944 7.04967 142.944C4.30224 142.944 2.94178 145.876 2.94178 148.411C2.94178 150.946 4.31991 153.754 7.06734 153.754C8.85185 153.754 10.3448 152.135 10.3978 150.295H7.29703V147.865H13.5958Z" fill="white"/>
<path d="M52.535 156.387C48.0825 156.387 45.3086 152.821 45.3086 148.332C45.3086 143.842 48.1797 140.312 52.535 140.312C56.8902 140.312 59.7613 143.798 59.7613 148.332C59.7613 152.865 56.9874 156.387 52.535 156.387ZM52.535 143.252C49.8405 143.252 48.2504 145.744 48.2504 148.209C48.2504 150.673 49.3723 153.455 52.535 153.455C55.6976 153.455 56.8195 150.559 56.8195 148.209C56.8195 145.735 55.2294 143.252 52.535 143.252Z" fill="white"/>
<path d="M92.1562 140.726H95.6988C98.4109 140.726 100.081 141.835 100.081 144.872C100.081 145.964 99.7095 147.223 98.7995 147.83C100.522 148.156 101.3 149.978 101.3 151.659C101.3 154.652 99.2854 155.99 96.6352 155.99H92.1651V140.726H92.1562ZM95.0009 147.082H95.3454C96.7412 147.082 97.4214 146.659 97.4214 145.075C97.4214 143.49 96.5733 143.112 95.3719 143.112H95.0009V147.082ZM95.0009 153.596H95.6016C97.1299 153.596 98.4462 153.394 98.4462 151.413C98.4462 149.432 96.9002 149.353 95.4602 149.353H94.992V153.605L95.0009 153.596Z" fill="white"/>
<path d="M136.72 143.314V146.677H141.252V149.265H136.72V153.394H141.428V155.982H133.875V140.717H141.428V143.305H136.72V143.314Z" fill="white"/>
<path d="M177.161 153.394H181.189V155.982H174.316V140.717H177.161V153.385V153.394Z" fill="white"/>
<path d="M215.95 155.982H213.105V140.717H215.95V155.982Z" fill="white"/>
<path d="M249.02 140.321H251.078L258.764 150.99H258.799V140.726H261.644V156.29H259.594L251.899 145.621H251.864V155.982H249.02V140.312V140.321Z" fill="white"/>
<path d="M301.6 144.08C301.061 143.314 300.363 142.83 299.409 142.83C298.455 142.83 297.624 143.561 297.624 144.547C297.624 147.117 303.42 146.043 303.42 151.166C303.42 154.221 301.6 156.387 298.614 156.387C296.6 156.387 295.124 155.172 294.117 153.411L295.955 151.527C296.343 152.698 297.368 153.755 298.587 153.755C299.806 153.755 300.469 152.725 300.469 151.545C300.469 149.969 299.073 149.52 297.934 149.054C296.052 148.244 294.683 147.249 294.683 144.881C294.683 142.355 296.485 140.303 298.941 140.303C300.239 140.303 302.041 140.972 302.934 142.002L301.6 144.062V144.08Z" fill="white"/>
<path d="M5.45926 179.363H8.43638V180.533H4.25781V169.248H5.45926V179.363Z" fill="white"/>
<path d="M20.9615 169.459L19.3272 173.271L18.5586 172.954L19.9014 169.045L20.9615 169.45V169.459Z" fill="white"/>
<path d="M32.9531 169.248H38.554V170.419H34.1546V173.773H38.4215V174.943H34.1546V179.371H38.554V180.542H32.9531V169.257V169.248Z" fill="white"/>
<path d="M58.8529 171.722C57.996 170.797 56.8033 170.225 55.5577 170.225C53.1548 170.225 51.2025 172.408 51.2025 174.891C51.2025 177.373 53.1637 179.556 55.5842 179.556C56.8033 179.556 57.9871 178.958 58.844 178.06V179.618C57.9164 180.322 56.768 180.727 55.6196 180.727C52.5718 180.727 49.9922 178.139 49.9922 174.935C49.9922 171.73 52.5276 169.054 55.6196 169.054C56.821 169.054 57.8811 169.415 58.844 170.163V171.722H58.8529Z" fill="white"/>
<path d="M81.618 174.908C81.618 178.157 79.0738 180.727 75.9906 180.727C72.9075 180.727 70.3633 178.157 70.3633 174.908C70.3633 171.66 72.9075 169.054 75.9906 169.054C79.0738 169.054 81.618 171.669 81.618 174.908ZM71.5647 174.891C71.5647 177.435 73.5436 179.556 75.9906 179.556C78.4377 179.556 80.4166 177.435 80.4166 174.891C80.4166 172.347 78.4731 170.225 75.9906 170.225C73.5082 170.225 71.5647 172.338 71.5647 174.891Z" fill="white"/>
<path d="M94.4827 179.363H97.4598V180.533H93.2812V169.248H94.4827V179.363Z" fill="white"/>
<path d="M108.668 169.248H114.269V170.419H109.869V173.773H114.136V174.943H109.869V179.371H114.269V180.542H108.668V169.257V169.248Z" fill="white"/>
<path d="M140.773 169.248H142.805C144.422 169.248 145.738 169.477 147.01 170.612C148.238 171.721 148.804 173.227 148.804 174.908C148.804 176.59 148.229 178.007 147.046 179.116C145.756 180.313 144.466 180.542 142.779 180.542H140.773V169.257V169.248ZM142.849 179.363C144.166 179.363 145.27 179.169 146.259 178.201C147.143 177.329 147.602 176.149 147.602 174.891C147.602 173.632 147.134 172.364 146.198 171.51C145.208 170.595 144.122 170.419 142.849 170.419H141.975V179.363H142.849Z" fill="white"/>
<path d="M160.508 169.248H166.109V170.419H161.718V173.773H165.985V174.943H161.718V179.371H166.109V180.542H160.508V169.257V169.248Z" fill="white"/>
<path d="M193.811 179.363H196.788V180.533H192.609V169.248H193.811V179.363Z" fill="white"/>
<path d="M209.317 169.459L207.683 173.271L206.914 172.954L208.257 169.045L209.317 169.45V169.459Z" fill="white"/>
<path d="M222.533 180.533H221.332V169.248H222.533V180.533Z" fill="white"/>
<path d="M236.154 168.605L240.076 178.077L244.016 168.605L246.207 180.533H244.979L243.592 172.901H243.566L240.085 181L236.622 172.901H236.595L235.208 180.533H233.98L236.171 168.605H236.154Z" fill="white"/>
<path d="M259.22 177.329L257.922 180.533H256.605L261.588 168.711L266.438 180.533H265.104L263.832 177.329H259.22ZM261.553 171.642L259.706 176.158H263.355L261.553 171.642Z" fill="white"/>
<path d="M287.667 174.864C287.693 176.387 287.534 177.646 286.554 178.843C285.564 180.04 284.062 180.727 282.561 180.727C279.522 180.727 277.004 178.095 277.004 174.926C277.004 171.757 279.522 169.063 282.631 169.063C284.522 169.063 286.05 169.943 287.199 171.501L286.324 172.355C285.423 171.026 284.204 170.234 282.614 170.234C280.149 170.234 278.205 172.399 278.205 174.943C278.205 176.141 278.665 177.276 279.469 178.13C280.255 178.958 281.403 179.565 282.534 179.565C284.407 179.565 286.386 178.13 286.386 176.035H283.179V174.864H287.676H287.667Z" fill="white"/>
<path d="M299.398 169.248H304.999V170.419H300.609V173.773H304.876V174.943H300.609V179.371H304.999V180.542H299.398V169.257V169.248Z" fill="white"/>
</g>
<defs>
<clipPath id="clip0_375_16">
<rect width="305" height="181" fill="white"/>
</clipPath>
</defs>
</svg>
